<?xml version="1.0" encoding="UTF-8" standalone="no"?>
<svg
   xmlns:dc="http://purl.org/dc/elements/1.1/"
   xmlns:cc="http://creativecommons.org/ns#"
   xmlns:rdf="http://www.w3.org/1999/02/22-rdf-syntax-ns#"
   xmlns:svg="http://www.w3.org/2000/svg"
   xmlns="http://www.w3.org/2000/svg"
   xmlns:sodipodi="http://sodipodi.sourceforge.net/DTD/sodipodi-0.dtd"
   xmlns:inkscape="http://www.inkscape.org/namespaces/inkscape"
   inkscape:version="1.0rc1 (09960d6, 2020-04-09)"
   sodipodi:docname="citysub_ph_logo_vertica_inkscapel.svg"
   id="svg180"
   viewBox="0 0 581.1 262.57"
   version="1.1"
   height="262.57mm"
   width="581.1mm">
  <defs
     id="defs184" />
  <sodipodi:namedview
     inkscape:current-layer="svg180"
     inkscape:window-maximized="0"
     inkscape:window-y="0"
     inkscape:window-x="0"
     inkscape:cy="143.9437"
     inkscape:cx="2735.1517"
     inkscape:zoom="0.1277506"
     showborder="false"
     showgrid="false"
     id="namedview182"
     inkscape:window-height="900"
     inkscape:window-width="1440"
     inkscape:pageshadow="2"
     inkscape:pageopacity="0"
     guidetolerance="10"
     gridtolerance="10"
     objecttolerance="10"
     borderopacity="1"
     bordercolor="#666666"
     pagecolor="#ffffff" />
  <metadata
     id="metadata10">
    <rdf:RDF>
      <cc:Work
         rdf:about="">
        <dc:format>image/svg+xml</dc:format>
        <dc:type
           rdf:resource="http://purl.org/dc/dcmitype/StillImage" />
        <dc:title></dc:title>
      </cc:Work>
    </rdf:RDF>
  </metadata>
  <g
     transform="translate(56.96,64.004)"
     fill="#e6e6e6"
     id="g52">
    <rect
       x="203.62"
       y="-29.423"
       width="15.157"
       height="78.371002"
       style="paint-order:fill markers stroke"
       id="rect12" />
    <rect
       x="337.38"
       y="9.8836002"
       width="19.475"
       height="37.174"
       style="paint-order:fill markers stroke"
       id="rect14" />
    <rect
       x="378.47"
       y="38.973"
       width="19.916"
       height="41.279999"
       style="paint-order:fill markers stroke"
       id="rect16" />
    <rect
       x="370.95001"
       y="21.466999"
       width="14.492"
       height="58.786999"
       style="paint-order:fill markers stroke"
       id="rect18" />
    <rect
       x="360.22"
       y="2.6733999"
       width="17.139"
       height="77.731003"
       style="paint-order:fill markers stroke"
       id="rect20" />
    <rect
       x="328.25"
       y="18.360001"
       width="26.156"
       height="42.096001"
       style="paint-order:fill markers stroke"
       id="rect22" />
    <rect
       x="66.722"
       y="46.626999"
       width="14.167"
       height="33.633999"
       style="paint-order:fill markers stroke"
       id="rect24" />
    <rect
       x="291.13"
       y="-11.541"
       width="6.6427002"
       height="49.667"
       style="paint-order:fill markers stroke"
       id="rect26" />
    <rect
       x="301.82001"
       y="-15.458"
       width="28.457001"
       height="50.147999"
       style="paint-order:fill markers stroke"
       id="rect28" />
    <rect
       x="280.79001"
       y="-11.636"
       width="18.212999"
       height="52.111"
       style="paint-order:fill markers stroke"
       id="rect30" />
    <path
       d="m 269.67,-40.602 -16.888,0.34344 v 67.659 h 33.778 v -67.659 z"
       style="paint-order:fill markers stroke"
       id="path32"
       inkscape:connector-curvature="0" />
    <rect
       x="113.6"
       y="20.98"
       width="22.077999"
       height="46.870998"
       style="paint-order:fill markers stroke"
       id="rect34" />
    <rect
       x="187.50999"
       y="-14.353"
       width="13.27"
       height="68.051003"
       style="paint-order:fill markers stroke"
       id="rect36" />
    <rect
       x="184.33"
       y="-19.91"
       width="21.843"
       height="78.371002"
       style="paint-order:fill markers stroke"
       id="rect38" />
    <path
       d="m 153.9,-49.393 -5.3721,0.33488 v 65.971 h 10.745 v -64.705 h 7.9e-4 v -1.2662 h -7.9e-4 z"
       style="paint-order:fill markers stroke"
       id="path40"
       inkscape:connector-curvature="0" />
    <rect
       x="140.97"
       y="-32.095001"
       width="26.146999"
       height="71.005997"
       style="paint-order:fill markers stroke"
       id="rect42" />
    <rect
       x="136.11"
       y="-24.628"
       width="36.657001"
       height="69.511002"
       style="paint-order:fill markers stroke"
       id="rect44" />
    <rect
       x="133.03"
       y="-14.601"
       width="42.634998"
       height="65.971001"
       style="paint-order:fill markers stroke"
       id="rect46" />
    <rect
       x="89.666"
       y="1.5109"
       width="19.919001"
       height="78.742996"
       style="paint-order:fill markers stroke"
       id="rect48" />
    <rect
       x="79.147003"
       y="21.052"
       width="14.879"
       height="59.201"
       style="paint-order:fill markers stroke"
       id="rect50" />
  </g>
  <path
     inkscape:connector-curvature="0"
     id="path54"
     style="paint-order:fill markers stroke"
     stroke-width="1.5929"
     stroke-linejoin="round"
     fill="#e80000"
     d="m 279.72,42.684 138.52,65.953 v 35.771 H 279.72 Z" />
  <path
     inkscape:connector-curvature="0"
     id="path56"
     style="paint-order:fill markers stroke"
     stroke-width="1.5789"
     stroke-linejoin="round"
     fill="#d90000"
     d="m 289.93,37.189 -129.12,69.516 v 37.703 h 129.12 z" />
  <path
     inkscape:connector-curvature="0"
     id="path58"
     style="paint-order:fill markers stroke"
     fill="#003380"
     d="m 290,36.678 -151.85,81.869 16.137,3.823 v 22.037 h 12.257 v -28.645 l 123.3,-66.477 121.52,65.518 v 29.366 h 12.257 v -22.757 l 18.246,-2.6851 z" />
  <text
     y="360.73495"
     x="-128.24255"
     id="text64"
     xml:space="preserve"
     style="line-height:1.25;white-space:pre;shape-inside:url(#rect1049);stroke-width:0.927363;"
     font-size="65.431px"
     font-family="'Adobe Gothic Std'"
     fill="#000000"
     transform="scale(1.0715874,0.93319499)"><tspan
       sodipodi:role="line"
       x="0"
       y="0"><tspan
         style="font-family:'Adobe Gothic Std';fill:#000000;stroke-width:0.860001">CITY &amp; SUBURBAN</tspan></tspan></text>
  <g
     transform="translate(56.96,64.004)"
     fill="#e6e6e6"
     id="g78">
    <g
       id="g74">
      <path
         d="m 153.9,-63.963 -1.4652,0.33488 v 65.971 h 2.9305 v -64.705 h 2e-4 v -1.2662 h -2e-4 z"
         style="paint-order:fill markers stroke"
         id="path68"
         inkscape:connector-curvature="0" />
      <path
         d="m 269.83,-45.143 -16.725,0.0175 v 3.4658 h 33.452 v -3.4658 z"
         style="paint-order:fill markers stroke"
         id="path70"
         inkscape:connector-curvature="0" />
      <path
         d="m 269.8,-64.004 -1.5159,0.10087 v 19.847 h 3.0322 v -19.466 h 1.6e-4 v -0.38094 h -1.6e-4 z"
         style="paint-order:fill markers stroke"
         id="path72"
         inkscape:connector-curvature="0" />
    </g>
    <path
       d="m 301.68,-14.793 15.042,-8.7232 13.559,8.7232 H 301.68"
       id="path76"
       inkscape:connector-curvature="0" />
  </g>
  <path
     inkscape:connector-curvature="0"
     id="path80"
     fill="#003380"
     d="m 289.82,131.95 -0.34927,-0.48234 -289.47,15.659 289.47,8.2384 291.27,-8.2384 -258.68,-14.276 -32.302,-1.2345 0.11615,2.0238 z" />
  <path
     inkscape:connector-curvature="0"
     id="path82"
     fill="#ffffff"
     d="M 0,147.126 289.88,131.879 580.74,147.126 290,129.703 Z" />
  <text
     y="-434.90738"
     x="1038.2157"
     id="text88"
     xml:space="preserve"
     style="line-height:1.25;white-space:pre;shape-inside:url(#rect2441);stroke-width:1.08567;"
     letter-spacing="8.61751px"
     font-size="42.1306px"
     font-family="'Adobe Gothic Std'"
     fill="#b3b3b3"
     transform="scale(1.0207512,0.97967064)"><tspan
       sodipodi:role="line"
       x="0"
       y="0"><tspan
         style="font-family:Poppins;fill:#b3b3b3;stroke-width:1.17868">PLUMBING &amp; HEATING</tspan></tspan></text>
  <g
     transform="translate(56.96,64.004)"
     fill="#ffffff"
     id="g98">
    <path
       d="M 109.59,73.872 V 51.758 l 2.5683,1.6762 z"
       id="path92"
       inkscape:connector-curvature="0" />
    <path
       d="m 109.59,51.759 2.5683,1.6762 120.73,-68.153 z"
       id="path94"
       inkscape:connector-curvature="0" />
    <path
       d="m 354.4,73.76 -3e-5,-22.96 -2.5683,1.6762 z"
       id="path96"
       inkscape:connector-curvature="0" />
  </g>
  <path
     d="m 138.152,118.548 v 10.006 l 5.2312,-0.303 z"
     fill="none"
     id="path100"
     inkscape:connector-curvature="0" />
  <path
     d="m 411.36,114.828 -2.5313,1.6526 -118.99,-67.195 z"
     fill="#ffffff"
     id="path102"
     inkscape:connector-curvature="0" />
  <g
     transform="translate(56.96,64.004)"
     id="g110">
    <path
       d="M 97.328,58.367 H 81.191 v -3.8229 z"
       fill="#003380"
       id="path104"
       inkscape:connector-curvature="0" />
    <path
       d="m 366.66,57.408 h 18.261 l -0.0145,-2.6851 z"
       fill="#003380"
       id="path106"
       inkscape:connector-curvature="0" />
    <path
       d="M -56.96,83.122 H 523.78 L 232.51,91.8766 Z"
       fill="#e6e6e6"
       id="path108"
       inkscape:connector-curvature="0" />
  </g>
  <g
     transform="translate(56.96,64.004)"
     fill="#ffffff"
     id="g120">
    <path
       d="M 366.66,73.706 368.6658,59.271 366.66,57.4087 Z"
       id="path112"
       inkscape:connector-curvature="0" />
    <path
       d="m 366.66,57.408 h 18.122 l -16.116,1.8623 z"
       id="path114"
       inkscape:connector-curvature="0" />
    <path
       d="M 97.328,74.665 95.3222,60.23 97.328,58.3677 Z"
       id="path116"
       inkscape:connector-curvature="0" />
    <path
       d="M 97.328,58.367 H 81.191 l 14.351,1.8623 z"
       id="path118"
       inkscape:connector-curvature="0" />
  </g>
  <g
     transform="translate(56.96,64.004)"
     fill="#003380"
     id="g140">
    <path
       d="m 366.66,57.408 h 18.261 l -0.0145,-2.6851 z"
       id="path122"
       inkscape:connector-curvature="0" />
    <path
       d="m 366.66,57.408 h 18.261 l -0.0145,-2.6851 z"
       id="path124"
       inkscape:connector-curvature="0" />
    <path
       d="m 366.66,57.408 h 18.261 l -0.0145,-2.6851 z"
       id="path126"
       inkscape:connector-curvature="0" />
    <path
       d="m 366.66,57.408 h 18.261 l -0.0145,-2.6851 z"
       id="path128"
       inkscape:connector-curvature="0" />
    <path
       d="m 366.66,57.408 h 18.261 l -0.0145,-2.6851 z"
       id="path130"
       inkscape:connector-curvature="0" />
    <path
       d="m 366.66,57.408 h 18.261 l -0.0145,-2.6851 z"
       id="path132"
       inkscape:connector-curvature="0" />
    <path
       d="m 366.66,57.408 h 18.261 l -0.0145,-2.6851 z"
       id="path134"
       inkscape:connector-curvature="0" />
    <path
       d="m 366.66,57.408 h 18.261 l -0.0145,-2.6851 z"
       id="path136"
       inkscape:connector-curvature="0" />
    <path
       d="m 366.66,57.408 h 18.261 l -0.0145,-2.6851 z"
       id="path138"
       inkscape:connector-curvature="0" />
  </g>
  <g
     transform="translate(56.96,64.004)"
     fill="#ffffff"
     id="g166">
    <path
       d="m 354.4,73.76 -3e-5,-22.96 -2.5683,1.6762 z"
       id="path142"
       inkscape:connector-curvature="0" />
    <path
       d="m 354.4,73.76 -3e-5,-22.96 -2.5683,1.6762 z"
       id="path144"
       inkscape:connector-curvature="0" />
    <path
       d="m 354.4,73.76 -3e-5,-22.96 -2.5683,1.6762 z"
       id="path146"
       inkscape:connector-curvature="0" />
    <path
       d="m 354.4,73.76 -3e-5,-22.96 -2.5683,1.6762 z"
       id="path148"
       inkscape:connector-curvature="0" />
    <path
       d="m 354.4,73.76 -3e-5,-22.96 -2.5683,1.6762 z"
       id="path150"
       inkscape:connector-curvature="0" />
    <path
       d="m 354.4,73.76 -3e-5,-22.96 -2.5683,1.6762 z"
       id="path152"
       inkscape:connector-curvature="0" />
    <path
       d="m 354.4,73.76 -3e-5,-22.96 -2.5683,1.6762 z"
       id="path154"
       inkscape:connector-curvature="0" />
    <path
       d="M 109.59,73.872 V 51.758 l 2.5683,1.6762 z"
       id="path156"
       inkscape:connector-curvature="0" />
    <path
       d="M 109.59,73.872 V 51.758 l 2.5683,1.6762 z"
       id="path158"
       inkscape:connector-curvature="0" />
    <path
       d="M 109.59,73.872 V 51.758 l 2.5683,1.6762 z"
       id="path160"
       inkscape:connector-curvature="0" />
    <path
       d="M 109.59,73.872 V 51.758 l 2.5683,1.6762 z"
       id="path162"
       inkscape:connector-curvature="0" />
    <path
       d="M 109.59,73.872 V 51.758 l 2.5683,1.6762 z"
       id="path164"
       inkscape:connector-curvature="0" />
  </g>
  <g
     transform="translate(56.96,64.004)"
     fill="#003380"
     id="g176">
    <path
       d="M 97.328,58.367 H 81.191 v -3.8229 z"
       id="path168"
       inkscape:connector-curvature="0" />
    <path
       d="M 97.328,58.367 H 81.191 v -3.8229 z"
       id="path170"
       inkscape:connector-curvature="0" />
    <path
       d="M 97.328,58.367 H 81.191 v -3.8229 z"
       id="path172"
       inkscape:connector-curvature="0" />
    <path
       d="M 97.328,58.367 H 81.191 v -3.8229 z"
       id="path174"
       inkscape:connector-curvature="0" />
  </g>
</svg>
