<?xml version="1.0" encoding="UTF-8"?>
<svg width="581.1mm" height="262.57mm" version="1.1" viewBox="0 0 581.1 262.57" xmlns="http://www.w3.org/2000/svg" xmlns:cc="http://creativecommons.org/ns#" xmlns:dc="http://purl.org/dc/elements/1.1/" xmlns:rdf="http://www.w3.org/1999/02/22-rdf-syntax-ns#">
 <metadata>
  <rdf:RDF>
   <cc:Work rdf:about="">
    <dc:format>image/svg+xml</dc:format>
    <dc:type rdf:resource="http://purl.org/dc/dcmitype/StillImage"/>
    <dc:title/>
   </cc:Work>
  </rdf:RDF>
 </metadata>
 <g transform="translate(220.25 173.62)">
  <g fill="#fff">
   <rect x="40.337" y="-139.04" width="15.157" height="78.371" style="paint-order:fill markers stroke"/>
   <rect x="174.09" y="-99.729" width="19.475" height="37.174" style="paint-order:fill markers stroke"/>
   <rect x="215.18" y="-70.64" width="19.916" height="41.28" style="paint-order:fill markers stroke"/>
   <rect x="207.66" y="-88.146" width="14.492" height="58.787" style="paint-order:fill markers stroke"/>
   <rect x="196.94" y="-106.94" width="17.139" height="77.731" style="paint-order:fill markers stroke"/>
   <rect x="164.96" y="-91.254" width="26.156" height="42.096" style="paint-order:fill markers stroke"/>
   <rect x="-96.563" y="-62.986" width="14.167" height="33.634" style="paint-order:fill markers stroke"/>
  </g>
  <rect x="127.84" y="-121.15" width="6.6427" height="49.667" fill="#e6e6e6" style="paint-order:fill markers stroke"/>
  <g fill="#fff">
   <rect x="138.54" y="-125.07" width="28.457" height="50.148" style="paint-order:fill markers stroke"/>
   <rect x="117.5" y="-121.25" width="18.213" height="52.111" style="paint-order:fill markers stroke"/>
   <path d="m106.38-150.22-16.888 0.34344v67.659h33.778v-67.659z" style="paint-order:fill markers stroke"/>
   <rect x="-49.688" y="-88.633" width="22.078" height="46.871" style="paint-order:fill markers stroke"/>
  </g>
  <rect x="24.221" y="-123.97" width="13.27" height="68.051" fill="#e6e6e6" style="paint-order:fill markers stroke"/>
  <g fill="#fff">
   <rect x="21.046" y="-129.52" width="21.843" height="78.371" style="paint-order:fill markers stroke"/>
   <path d="m-9.3875-159.01-5.3721 0.33488v65.971h10.745v-64.705h7.9e-4v-1.2662h-7.9e-4z" style="paint-order:fill markers stroke"/>
   <rect x="-22.317" y="-141.71" width="26.147" height="71.006" style="paint-order:fill markers stroke"/>
   <rect x="-27.172" y="-134.24" width="36.657" height="69.511" style="paint-order:fill markers stroke"/>
   <rect x="-30.259" y="-124.21" width="42.635" height="65.971" style="paint-order:fill markers stroke"/>
   <rect x="-73.62" y="-108.1" width="19.919" height="78.743" style="paint-order:fill markers stroke"/>
   <rect x="-84.139" y="-88.561" width="14.879" height="59.201" style="paint-order:fill markers stroke"/>
  </g>
  <g>
   <path d="m59.478-130.93 138.52 65.953v35.771h-138.52z" fill="#e80000" stroke-linejoin="round" stroke-width="1.5929" style="paint-order:fill markers stroke"/>
   <path d="m69.685-136.43-129.12 69.516v37.703h129.12z" fill="#d90000" stroke-linejoin="round" stroke-width="1.5789" style="paint-order:fill markers stroke"/>
   <path d="m69.752-136.94-151.85 81.869 16.137 3.823v22.037h12.257v-28.645l123.3-66.477 121.52 65.518v29.366h12.257v-22.757l18.246-2.6851z" fill="#003380" style="paint-order:fill markers stroke"/>
   <text transform="matrix(.99375 0 0 .86541 -332.82 -260.02)" fill="#000000" font-family="'Adobe Gothic Std'" font-size="70.556px" style="line-height:1.25;shape-inside:url(#rect1049);white-space:pre" xml:space="preserve"><tspan x="110.78125" y="348.1369"><tspan fill="#000000" font-family="'Adobe Gothic Std'">CITY &amp; SUBURBAN</tspan></tspan></text>
  </g>
  <g fill="#fff">
   <g>
    <path d="m-9.3897-173.58-1.4652 0.33488v65.971h2.9305v-64.705h2e-4v-1.2662h-2e-4z" style="paint-order:fill markers stroke"/>
    <path d="m106.55-154.76-16.725 0.0175v3.4658h33.452v-3.4658z" style="paint-order:fill markers stroke"/>
    <path d="m106.51-173.62-1.5159 0.10087v19.847h3.0322v-19.466h1.6e-4v-0.38094h-1.6e-4z" style="paint-order:fill markers stroke"/>
   </g>
   <path d="m138.39-124.41 15.042-8.7232 13.559 8.7232h-28.601"/>
  </g>
  <g>
   <path d="m69.574-41.668-0.34927-0.48234-289.47 15.659 289.47 8.2384 291.27-8.2384-258.68-14.276-32.302-1.2345 0.11615 2.0238z" fill="#003380"/>
   <path d="m-220.25-26.491 289.88-15.247 290.86 15.247-290.74-17.423z" fill="#fff"/>
   <text transform="matrix(1.1082 0 0 1.0636 839.5 -599.69)" fill="#ffffff" font-family="'Adobe Gothic Std'" font-size="38.806px" letter-spacing="7.9375px" style="line-height:1.25;shape-inside:url(#rect2441);white-space:pre" xml:space="preserve"><tspan x="-956.26172" y="647.17736"><tspan fill="#ffffff" font-family="Poppins">PLUMBING &amp; HEATING</tspan></tspan></text>
  </g>
  <g fill="#fff">
   <path d="m-53.701-35.741v-22.114l2.5683 1.6762z"/>
   <path d="m-53.701-57.854 2.5683 1.6762 120.73-68.153z"/>
   <path d="m191.12-35.853-3e-5 -22.96-2.5683 1.6762z"/>
  </g>
  <path d="m-82.094-55.069v10.006l5.2312-0.303z" fill="none"/>
  <path d="m191.12-58.789-2.5313 1.6526-118.99-67.195z" fill="#fff"/>
  <path d="m-65.957-51.246h-16.137v-3.8229z" fill="#003380"/>
  <path d="m203.37-52.205h18.261l-0.0145-2.6851z" fill="#003380"/>
  <g fill="#fff">
   <path d="m-220.25-26.491h580.74l-291.27 8.7546z"/>
   <path d="m203.37-35.907 2.0058-14.435-2.0058-1.8623z"/>
   <path d="m203.37-52.205h18.122l-16.116 1.8623z"/>
   <path d="m-65.957-34.949-2.0058-14.435 2.0058-1.8623z"/>
   <path d="m-65.957-51.246h-16.137l14.351 1.8623z"/>
  </g>
  <g fill="#003380">
   <path d="m203.37-52.205h18.261l-0.0145-2.6851z"/>
   <path d="m203.37-52.205h18.261l-0.0145-2.6851z"/>
   <path d="m203.37-52.205h18.261l-0.0145-2.6851z"/>
   <path d="m203.37-52.205h18.261l-0.0145-2.6851z"/>
   <path d="m203.37-52.205h18.261l-0.0145-2.6851z"/>
   <path d="m203.37-52.205h18.261l-0.0145-2.6851z"/>
   <path d="m203.37-52.205h18.261l-0.0145-2.6851z"/>
   <path d="m203.37-52.205h18.261l-0.0145-2.6851z"/>
   <path d="m203.37-52.205h18.261l-0.0145-2.6851z"/>
  </g>
  <g fill="#fff">
   <path d="m191.12-35.853-3e-5 -22.96-2.5683 1.6762z"/>
   <path d="m191.12-35.853-3e-5 -22.96-2.5683 1.6762z"/>
   <path d="m191.12-35.853-3e-5 -22.96-2.5683 1.6762z"/>
   <path d="m191.12-35.853-3e-5 -22.96-2.5683 1.6762z"/>
   <path d="m191.12-35.853-3e-5 -22.96-2.5683 1.6762z"/>
   <path d="m191.12-35.853-3e-5 -22.96-2.5683 1.6762z"/>
   <path d="m191.12-35.853-3e-5 -22.96-2.5683 1.6762z"/>
   <path d="m-53.701-35.741v-22.114l2.5683 1.6762z"/>
   <path d="m-53.701-35.741v-22.114l2.5683 1.6762z"/>
   <path d="m-53.701-35.741v-22.114l2.5683 1.6762z"/>
   <path d="m-53.701-35.741v-22.114l2.5683 1.6762z"/>
   <path d="m-53.701-35.741v-22.114l2.5683 1.6762z"/>
  </g>
  <g fill="#003380">
   <path d="m-65.957-51.246h-16.137v-3.8229z"/>
   <path d="m-65.957-51.246h-16.137v-3.8229z"/>
   <path d="m-65.957-51.246h-16.137v-3.8229z"/>
   <path d="m-65.957-51.246h-16.137v-3.8229z"/>
  </g>
 </g>
</svg>
